<svg version="1.1" xmlns="http://www.w3.org/2000/svg" viewBox="0 0 1188.3194183050468 308.3904964911293" width="1188.3194183050468" height="308.3904964911293">
  <!-- svg-source:excalidraw -->
  
  <defs>
    <style>
      @font-face {
        font-family: "Virgil";
        src: url("https://excalidraw.com/Virgil.woff2");
      }
      @font-face {
        font-family: "Cascadia";
        src: url("https://excalidraw.com/Cascadia.woff2");
      }
    </style>
  </defs>
  <rect x="0" y="0" width="1188.3194183050468" height="308.3904964911293" fill="#ffffff"></rect><g stroke-linecap="round" transform="translate(10 92.43929743277079) rotate(0 92.744209611867 59.897302040997374)"><path d="M-0.64 -0.1 C56.11 -2.16, 114.34 -1.2, 187.11 -1.52 M0.51 0.45 C45.22 -0.43, 91.83 -0.79, 186.27 -0.35 M185.64 1.95 C187.11 34.76, 184.44 67.35, 187.36 118.16 M186.37 -0.38 C185.88 32.63, 185.84 65.29, 185.84 119.41 M184.02 120.87 C142.12 120.87, 103.87 120.32, -0.32 120.83 M185.14 118.8 C138.2 118.29, 91.65 118.56, 0.13 119.89 M1.57 118.18 C-1.02 86.68, -0.77 55.17, 1.18 -1.97 M0.71 120.17 C1.43 87.87, 1.06 57.3, -0.88 -0.29" stroke="#000000" stroke-width="1" fill="none"></path></g><g transform="translate(39.96513100741686 147.84499855212277) rotate(0 28 12.5)"><text x="28" y="18" font-family="Virgil, Segoe UI Emoji" font-size="20px" fill="#000000" text-anchor="middle" style="white-space: pre;" direction="ltr">Client</text></g><g stroke-linecap="round" transform="translate(297.2494269923104 37.050394470128026) rotate(0 101.76100776857629 88.87986754470586)"><path d="M-0.68 -1.37 C56.95 -0.15, 112.1 0.32, 201.8 0.5 M0.46 -0.43 C73.88 -0.51, 147.59 -0.59, 203.11 0.14 M203.72 -0.75 C205.01 49.79, 205.84 98.26, 202.95 176.07 M202.54 -0.35 C201.4 49.8, 202.66 101.19, 204.3 177.55 M203 178.24 C134.24 174.42, 65.48 175.16, -1.63 178.63 M203.53 178.54 C158.93 177.28, 115.37 177.01, 0.02 177.01 M1.94 178.08 C0.95 130.72, 0.57 83.15, -0.78 0.22 M-0.81 178.48 C-0.41 110.13, 0.54 41.65, -0.25 -0.99" stroke="#000000" stroke-width="1" fill="none"></path></g><g transform="translate(364.6887244250811 124.65894614915612) rotate(0 15 12.5)"><text x="15" y="18" font-family="Virgil, Segoe UI Emoji" font-size="20px" fill="#000000" text-anchor="middle" style="white-space: pre;" direction="ltr">api</text></g><g stroke-linecap="round"><g transform="translate(201.92898933566948 97.98156430664892) rotate(0 34.922786470223684 -1.994209147259994)"><path d="M0.03 -1.17 C11.97 -2.03, 59.64 -4.42, 71.26 -4.81 M-1.41 0.82 C10.43 0.09, 58.28 -2.56, 70.53 -3.63" stroke="#000000" stroke-width="1" fill="none"></path></g><g transform="translate(201.92898933566948 97.98156430664892) rotate(0 34.922786470223684 -1.994209147259994)"><path d="M41.15 9.24 C49.38 3.43, 58.89 0.26, 68.63 -4.93 M43.9 8.12 C51.73 5.13, 58.64 1.08, 70.78 -3.06" stroke="#000000" stroke-width="1" fill="none"></path></g><g transform="translate(201.92898933566948 97.98156430664892) rotate(0 34.922786470223684 -1.994209147259994)"><path d="M39.74 -11.23 C48.4 -11.5, 58.29 -9.12, 68.63 -4.93 M42.48 -12.35 C50.92 -9.17, 58.26 -7.07, 70.78 -3.06" stroke="#000000" stroke-width="1" fill="none"></path></g></g><g transform="translate(182.00521738044336 49.94833285070763) rotate(0 22.5 12.5)"><text x="22.5" y="18" font-family="Virgil, Segoe UI Emoji" font-size="20px" fill="#000000" text-anchor="middle" style="white-space: pre;" direction="ltr">post</text></g><g stroke-linecap="round" transform="translate(616.7017045442967 10) rotate(0 87.59175352231887 92.10015260067354)"><path d="M-0.85 -0.78 C65.06 0.75, 129.25 -2.81, 173.57 1.44 M-0.22 -0.25 C37.98 -0.24, 77.29 -0.57, 175.17 0.87 M176.25 0.38 C173.57 47.41, 173.52 92.8, 176.23 182.34 M175.16 -0.75 C173.3 61.24, 173.34 121.99, 174.24 184.58 M174.66 183.92 C107.34 184.25, 44.15 183.51, -1.97 185.89 M175.98 184.68 C125.05 185.1, 77.11 186.26, 0.37 184.15 M-0.12 185.09 C-1.38 117.63, -2.52 50.2, 1.23 -0.67 M-0.42 185.13 C-0.8 116.5, -0.31 48.97, 0.65 -0.06" stroke="#000000" stroke-width="1" fill="none"></path></g><g transform="translate(643.2934580666156 95.8501526006736) rotate(0 61 12.5)"><text x="61" y="18" font-family="Virgil, Segoe UI Emoji" font-size="20px" fill="#000000" text-anchor="middle" style="white-space: pre;" direction="ltr">redis pubsub</text></g><g stroke-linecap="round" transform="translate(997.9834551708609 114.3372358133505) rotate(0 90.16798156709297 88.87986754470586)"><path d="M1.14 1.33 C63.49 0.8, 126.88 2.01, 181.86 -0.12 M-0.75 0.91 C62.76 -1.54, 124.96 -1.3, 180.9 -0.42 M179.38 -0.44 C179.92 69.69, 180.33 141.52, 182.08 175.86 M181.05 0.48 C177.81 57.46, 179.78 113.81, 180.64 177.7 M180.66 177.86 C138.11 180.23, 90.92 179.65, 0.1 175.77 M179.62 178.56 C116.93 176.45, 53.5 177.49, -0.12 177.18 M-1.45 177.03 C1.25 142.18, -1.72 106.65, -0.58 -0.8 M0.81 177.82 C1.61 134.5, 0.87 91.26, -0.31 0.19" stroke="#000000" stroke-width="1" fill="none"></path></g><g transform="translate(1049.227664782728 192.92898933566926) rotate(0 41.5 12.5)"><text x="41.5" y="18" font-family="Virgil, Segoe UI Emoji" font-size="20px" fill="#000000" text-anchor="middle" style="white-space: pre;" direction="ltr">mysql db</text></g><g stroke-linecap="round"><g transform="translate(517.5169248204948 70.04277101218065) rotate(0 35.08355969695515 0.14010224810118643)"><path d="M-0.53 -0.89 C10.88 -1.02, 56.81 -1.04, 68.52 -0.8 M1.4 1.26 C13.16 1.3, 59.4 0.97, 70.69 0.54" stroke="#000000" stroke-width="1" fill="none"></path></g><g transform="translate(517.5169248204948 70.04277101218065) rotate(0 35.08355969695515 0.14010224810118643)"><path d="M41.23 9.63 C50.66 8.54, 61.48 4.82, 70.01 -1.12 M43.59 10.47 C54.06 6.73, 64.48 2.32, 71.32 0.46" stroke="#000000" stroke-width="1" fill="none"></path></g><g transform="translate(517.5169248204948 70.04277101218065) rotate(0 35.08355969695515 0.14010224810118643)"><path d="M40.83 -10.88 C50.38 -5.69, 61.32 -3.12, 70.01 -1.12 M43.19 -10.05 C53.85 -5.97, 64.42 -2.56, 71.32 0.46" stroke="#000000" stroke-width="1" fill="none"></path></g></g><g stroke-linecap="round" transform="translate(826.6642901933847 89.86306938799669) rotate(0 65.04975813054557 67.62598617531967)"><path d="M1.42 -1.35 C31.98 -0.78, 63.33 0.99, 131.77 0.76 M0.46 0.63 C44.64 0.81, 86.83 -0.2, 130.89 -0.86 M130.09 -1.56 C131.57 30.11, 130.35 63.74, 129.4 135.11 M130.24 0.07 C130.8 48.75, 131.23 95.82, 129.68 134.83 M130.61 134.68 C79.49 137.07, 33.76 133.74, -0.54 136.9 M129.84 135.62 C81.71 135.06, 35 134.41, 0.86 134.47 M1.22 136.19 C2.35 105, 0.12 74.83, 1.16 -1.84 M0.13 135.87 C-0.66 100.86, -1.74 66.78, -0.25 0.88" stroke="#000000" stroke-width="1" fill="none"></path></g><g transform="translate(509.50788940255757 21.609824358192668) rotate(0 41.5 12.5)"><text x="41.5" y="18" font-family="Virgil, Segoe UI Emoji" font-size="20px" fill="#000000" text-anchor="middle" style="white-space: pre;" direction="ltr">publisher</text></g><g stroke-linecap="round"><g transform="translate(816.3593780142883 26.745482291031635) rotate(0 29.115690225764524 30.910369513099283)"><path d="M0.73 0.56 C10.69 10.72, 49.16 50.51, 58.58 60.49 M-0.35 -0.19 C9.61 10.22, 47.93 51.68, 57.95 62.01" stroke="#000000" stroke-width="1" fill="none"></path></g><g transform="translate(816.3593780142883 26.745482291031635) rotate(0 29.115690225764524 30.910369513099283)"><path d="M32.08 49.57 C36.41 49.89, 41.8 54.97, 56.11 61.01 M31.75 48.88 C40.61 52.79, 50.36 58.31, 58.83 62.59" stroke="#000000" stroke-width="1" fill="none"></path></g><g transform="translate(816.3593780142883 26.745482291031635) rotate(0 29.115690225764524 30.910369513099283)"><path d="M47 35.48 C48.27 38.73, 50.65 46.65, 56.11 61.01 M46.67 34.79 C49.98 43.98, 54.17 54.75, 58.83 62.59" stroke="#000000" stroke-width="1" fill="none"></path></g></g><g transform="translate(840.7818772903495 13.881140223870375) rotate(0 49 12.5)"><text x="49" y="18" font-family="Virgil, Segoe UI Emoji" font-size="20px" fill="#000000" text-anchor="middle" style="white-space: pre;" direction="ltr">subscriber</text></g><g transform="translate(847.8749034918328 138.82820039541355) rotate(0 53.5 25)"><text x="53.5" y="18" font-family="Virgil, Segoe UI Emoji" font-size="20px" fill="#000000" text-anchor="middle" style="white-space: pre;" direction="ltr">subscriber </text><text x="53.5" y="43" font-family="Virgil, Segoe UI Emoji" font-size="20px" fill="#000000" text-anchor="middle" style="white-space: pre;" direction="ltr">server</text></g><g stroke-linecap="round"><g transform="translate(955.4756924320886 113.04912179096334) rotate(0 24.17090500028803 26.763872839794146)"><path d="M0.57 -0.17 C8.26 9.06, 38.68 45.79, 46.71 54.83 M-0.58 -1.3 C7.42 7.64, 40.74 43.64, 48.93 53.09" stroke="#000000" stroke-width="1" fill="none"></path></g><g transform="translate(955.4756924320886 113.04912179096334) rotate(0 24.17090500028803 26.763872839794146)"><path d="M22.17 37.41 C32.86 45.6, 40.9 48.32, 48.05 51.46 M21.6 39.62 C30.35 42.17, 37.1 46.96, 48.28 52.18" stroke="#000000" stroke-width="1" fill="none"></path></g><g transform="translate(955.4756924320886 113.04912179096334) rotate(0 24.17090500028803 26.763872839794146)"><path d="M37.43 23.69 C42.72 36.75, 45.41 44.27, 48.05 51.46 M36.86 25.9 C41.47 32.09, 44.16 40.53, 48.28 52.18" stroke="#000000" stroke-width="1" fill="none"></path></g></g><g stroke-linecap="round"><g transform="translate(495.6189864399146 215.19835848216064) rotate(0 242.43684353354638 41.45498035157556)"><path d="M-1.09 0.5 C36.16 13.67, 142.83 66.77, 224.01 78.27 C305.18 89.77, 442.47 70.75, 485.96 69.48 M0.54 -0.28 C38.13 13.1, 145.51 67.67, 226.32 79.44 C307.12 91.22, 442.28 71.6, 485.38 70.35" stroke="#000000" stroke-width="1" fill="none"></path></g><g transform="translate(495.6189864399146 215.19835848216064) rotate(0 242.43684353354638 41.45498035157556)"><path d="M458.92 81.53 C466.38 79.36, 475.48 73.47, 485.95 69.46 M457.81 82.2 C464.05 79.54, 470.14 76.69, 484.45 69.77" stroke="#000000" stroke-width="1" fill="none"></path></g><g transform="translate(495.6189864399146 215.19835848216064) rotate(0 242.43684353354638 41.45498035157556)"><path d="M457.3 61.08 C465.18 65.94, 474.84 67.06, 485.95 69.46 M456.18 61.75 C462.67 63.24, 469.1 64.55, 484.45 69.77" stroke="#000000" stroke-width="1" fill="none"></path></g></g><g stroke-linecap="round"><g transform="translate(208.3695594476044 196.4012949714778) rotate(0 31.379507958542888 -2.096510909329936)"><path d="M0.63 -0.15 C10.93 -0.55, 50.85 -1.88, 60.98 -2.53 M-0.49 -1.28 C10.25 -1.97, 53.09 -3.77, 63.25 -4.04" stroke="#000000" stroke-width="1" fill="none"></path></g><g transform="translate(208.3695594476044 196.4012949714778) rotate(0 31.379507958542888 -2.096510909329936)"><path d="M35.19 5.82 C43.85 3.79, 47.83 3.35, 63.25 -3.57 M35.01 7.05 C47.16 1.71, 58.3 -1, 62.38 -3.47" stroke="#000000" stroke-width="1" fill="none"></path></g><g transform="translate(208.3695594476044 196.4012949714778) rotate(0 31.379507958542888 -2.096510909329936)"><path d="M34.46 -14.69 C43.27 -11.95, 47.42 -7.62, 63.25 -3.57 M34.27 -13.46 C46.88 -10.62, 58.31 -5.14, 62.38 -3.47" stroke="#000000" stroke-width="1" fill="none"></path></g></g><g transform="translate(219.70806794011935 209.6744716267009) rotate(0 17 12.5)"><text x="17" y="18" font-family="Virgil, Segoe UI Emoji" font-size="20px" fill="#000000" text-anchor="middle" style="white-space: pre;" direction="ltr">get</text></g></svg>